PathFileType	4	(X/Y/Z)	/Users/itak/Documents/Research/Walk-IL/dataset/trc/00246_00009.trc
DataRate	CameraRate	NumFrames	NumMarkers	Units	OrigDataRate	OrigDataStartFrame	OrigNumFrames
100.000000	100.000000	4	53	mm	100.000000	313	837
Frame#	Time	RPSI			LPSI			L3			STRN			T10			C7			CLAV			RBAK			LBAK			LSHO			LUPA			LAEL			LAOL			LWTS			LWPS			LFRA			LIFD			LHPS			LHTS			RSHO			RUPA			RAEL			RAOL			RWTS			RWPS			RFRA			RIFD			RHTS			RHPS			RBHD			LFHD			RFHD			LBHD			LHIP			RHIP			RASI			LASI			LKNE			LTHI			LANK			LTIP			LTOE			LMT1			LMT5			LHEE			RKNE			RTHI			RANK			RTIP			RTOE			RMT1			RMT5			RHEE			
		X1	Y1	Z1	X2	Y2	Z2	X3	Y3	Z3	X4	Y4	Z4	X5	Y5	Z5	X6	Y6	Z6	X7	Y7	Z7	X8	Y8	Z8	X9	Y9	Z9	X10	Y10	Z10	X11	Y11	Z11	X12	Y12	Z12	X13	Y13	Z13	X14	Y14	Z14	X15	Y15	Z15	X16	Y16	Z16	X17	Y17	Z17	X18	Y18	Z18	X19	Y19	Z19	X20	Y20	Z20	X21	Y21	Z21	X22	Y22	Z22	X23	Y23	Z23	X24	Y24	Z24	X25	Y25	Z25	X26	Y26	Z26	X27	Y27	Z27	X28	Y28	Z28	X29	Y29	Z29	X30	Y30	Z30	X31	Y31	Z31	X32	Y32	Z32	X33	Y33	Z33	X34	Y34	Z34	X35	Y35	Z35	X36	Y36	Z36	X37	Y37	Z37	X38	Y38	Z38	X39	Y39	Z39	X40	Y40	Z40	X41	Y41	Z41	X42	Y42	Z42	X43	Y43	Z43	X44	Y44	Z44	X45	Y45	Z45	X46	Y46	Z46	X47	Y47	Z47	X48	Y48	Z48	X49	Y49	Z49	X50	Y50	Z50	X51	Y51	Z51	X52	Y52	Z52	X53	Y53	Z53	

314	3.13	-580.676513671875	1033.3984375	66.7012939453125	-688.1703491210938	1046.5732421875	14.35575294494629	-651.4188232421875	1126.088012695312	38.97058486938477	-538.4090576171875	1307.907958984375	-187.4995727539062	-643.8936767578125	1252.28662109375	42.76242446899414	-611.4698486328125	1513.028198242188	-14.18135547637939	-543.4385986328125	1426.101318359375	-163.5619201660156	-582.680908203125	1373.277099609375	85.20554351806641	-721.6996459960938	1478.684326171875	-43.75139617919922	-733.0493774414062	1480.98681640625	-148.35546875	-822.3494873046875	1369.457641601562	-164.264892578125	-851.161865234375	1166.29296875	-217.00244140625	-848.0589599609375	1134.086669921875	-135.2340393066406	-715.5713500976562	974.3551635742188	-317.0164489746094	-790.1639404296875	955.2919921875	-351.3067016601562	-834.6329345703125	1071.722534179688	-270.4439086914062	-689.7886352539062	793.86376953125	-388.5525512695312	-763.6410522460938	879.051513671875	-390.1745300292969	-696.0603637695312	893.333984375	-387.4014587402344	-434.7843933105469	1465.3203125	4.538654804229736	-385.9713439941406	1399.563232421875	52.4351806640625	-371.5726013183594	1120.3759765625	99.23342132568359	-464.9325561523438	1113.548095703125	81.83821868896484	-329.9169616699219	912.3275756835938	-45.27614974975586	-306.4903564453125	894.720947265625	34.06305313110352	-346.4809875488281	1052.29541015625	82.72043609619141	-322.5684814453125	720.6197509765625	-67.96902465820312	-292.3544311523438	793.4722290039062	-73.99310302734375	-279.921142578125	790.8565673828125	-2.376778364181519	-536.89453125	1655.52001953125	-18.52490043640137	-545.9190063476562	1725.646606445312	-234.399658203125	-453.28515625	1717.60498046875	-196.2769012451172	-641.5656127929688	1676.986694335938	-110.0079727172852	-773.3727416992188	993.9501342773438	-140.1832427978516	-442.5997924804688	990.2792358398438	22.09152603149414	-435.0270690917969	1039.21533203125	-78.46607208251953	-684.6790771484375	1033.88330078125	-208.0599060058594	-684.55908203125	514.4965209960938	-215.2695770263672	-723.4085693359375	655.3741455078125	-203.2505950927734	-723.7949829101562	36.88346099853516	-136.4049987792969	-708.84326171875	284.3887939453125	-181.7103576660156	-556.8851318359375	43.46683883666992	-285.7232055664062	-559.113525390625	41.10094833374023	-205.9067993164062	-668.675048828125	36.11958694458008	-252.6851501464844	-712.27685546875	46.3363151550293	-57.15718078613281	-420.6535949707031	511.2899475097656	-124.7973861694336	-408.7671203613281	774.8292236328125	-65.07484436035156	-593.5015869140625	179.099609375	189.6022644042969	-456.8140563964844	402.4712829589844	-94.61548614501953	-598.6788330078125	48.85700988769531	24.46755409240723	-648.6070556640625	89.28408050537109	54.20379638671875	-554.7772827148438	97.62450408935547	124.0480804443359	-654.395263671875	229.7500762939453	214.5403900146484	
315	3.14	-579.906494140625	1034.24267578125	62.27350997924805	-686.9601440429688	1047.419311523438	9.002316474914551	-650.7513427734375	1127.052001953125	33.62800979614258	-535.0227661132812	1308.294921875	-192.0948638916016	-643.3601684570312	1253.224853515625	36.96835327148438	-610.1627807617188	1513.780029296875	-20.19370079040527	-540.2310180664062	1426.561157226562	-168.5148468017578	-582.67431640625	1374.28515625	79.84735107421875	-720.1298217773438	1479.466796875	-51.24093246459961	-729.91845703125	1481.609375	-155.9998626708984	-818.8218994140625	1370.13818359375	-173.5540618896484	-846.040283203125	1167.107299804688	-227.5923461914062	-844.9060668945312	1134.561767578125	-145.9067993164062	-706.917724609375	976.561767578125	-325.1824035644531	-780.4044799804688	957.4121704101562	-361.6396789550781	-827.6768188476562	1072.999755859375	-281.1253967285156	-678.3928833007812	796.7243041992188	-397.3297424316406	-752.4680786132812	881.575927734375	-400.3341369628906	-685.0554809570312	896.1854858398438	-395.6696166992188	-433.7968139648438	1466.146728515625	0.892753005027771	-385.5984191894531	1400.415283203125	49.50498580932617	-372.0896606445312	1121.195678710938	96.77310943603516	-465.2410888671875	1114.48583984375	78.27761077880859	-328.7157897949219	914.419189453125	-49.0315055847168	-306.2966918945312	895.9393920898438	30.4161319732666	-346.7711181640625	1053.091552734375	80.10855865478516	-321.05126953125	723.0455322265625	-73.92195892333984	-290.6657104492188	795.9684448242188	-78.63347625732422	-279.2730102539062	792.4686279296875	-6.855556011199951	-535.6461181640625	1656.262817382812	-23.8698844909668	-542.0817260742188	1725.912963867188	-239.9281616210938	-449.8721313476562	1718.030151367188	-200.716796875	-639.1318969726562	1677.450561523438	-116.6006011962891	-770.9803466796875	994.0466918945312	-145.9671020507812	-441.5685119628906	991.946044921875	18.99736213684082	-433.17919921875	1040.160278320312	-81.83669281005859	-681.66650390625	1034.20751953125	-213.5945281982422	-683.6035766601562	513.9790649414062	-217.2228698730469	-721.8306274414062	655.1544799804688	-206.4208679199219	-723.7247924804688	36.99638366699219	-136.3860778808594	-708.3377075195312	284.1376647949219	-182.6024475097656	-556.94482421875	43.47517013549805	-285.7891235351562	-559.0634765625	41.05953979492188	-205.893310546875	-668.59716796875	36.11334609985352	-252.6440582275391	-712.1884155273438	46.40785598754883	-57.09686279296875	-414.3362426757812	514.2879638671875	-132.8708648681641	-404.9609985351562	777.299072265625	-69.40982818603516	-588.6047973632812	174.6887359619141	172.2422027587891	-450.0030822753906	404.8471984863281	-104.7400665283203	-584.2229614257812	50.06061553955078	2.771825551986694	-636.796630859375	86.95167541503906	32.60031509399414	-544.9703979492188	97.22042083740234	104.7695922851562	-652.1077270507812	222.2525024414062	197.2573089599609	
316	3.15	-579.0393676757812	1035.080688476562	57.87555694580078	-685.62841796875	1048.156005859375	3.682247638702393	-649.9828491210938	1127.9794921875	28.34368705749512	-531.646484375	1308.674072265625	-196.6856231689453	-642.7199096679688	1254.1201171875	31.22658920288086	-608.760498046875	1514.494995117188	-26.14043998718262	-537.029541015625	1426.995727539062	-173.430908203125	-582.552978515625	1375.256591796875	74.51935577392578	-718.4694213867188	1480.202880859375	-58.60396194458008	-726.729736328125	1482.210815429688	-163.4702453613281	-815.2471923828125	1370.795776367188	-182.6430969238281	-840.819580078125	1167.908081054688	-238.0127716064453	-841.6371459960938	1135.015502929688	-156.4648132324219	-698.1903686523438	978.791015625	-333.1094970703125	-770.5657958984375	959.5169677734375	-371.6575317382812	-820.609375	1074.263549804688	-291.5823059082031	-666.890380859375	799.5850219726562	-405.7073059082031	-741.20361328125	884.080322265625	-410.1119079589844	-674.0169067382812	899.034423828125	-403.6004028320312	-432.7413024902344	1466.927490234375	-2.797592163085938	-385.1659240722656	1401.234375	46.51025390625	-372.5432739257812	1122.003662109375	94.31885528564453	-465.49853515625	1115.4365234375	74.83099365234375	-327.6249389648438	916.4476318359375	-52.72132873535156	-306.1065979003906	897.1282348632812	26.78769493103027	-347.026123046875	1053.8642578125	77.50419616699219	-319.7261657714844	725.3958129882812	-79.69187164306641	-289.1809997558594	798.3724975585938	-83.18085479736328	-278.69580078125	794.0349731445312	-11.28895854949951	-534.310546875	1656.962768554688	-29.16450691223145	-538.2218627929688	1726.154418945312	-245.3916320800781	-446.4374084472656	1718.406982421875	-205.1181945800781	-636.6453247070312	1677.898559570312	-123.1150741577148	-768.5640258789062	994.1249389648438	-151.6607513427734	-440.4231872558594	993.5277709960938	15.8149938583374	-431.3167114257812	1041.072387695312	-85.21415710449219	-678.6048583984375	1034.488891601562	-219.0920562744141	-682.7158203125	513.467041015625	-219.0652770996094	-720.32568359375	654.9326171875	-209.5012969970703	-723.6537475585938	37.10526275634766	-136.3626556396484	-707.8790283203125	283.8951416015625	-183.4142761230469	-557.0131225585938	43.49059677124023	-285.8569641113281	-559.0153198242188	41.01972579956055	-205.8800811767578	-668.5241088867188	36.10025405883789	-252.6013793945312	-712.085693359375	46.46684265136719	-57.0252799987793	-408.1099853515625	517.232666015625	-140.4981231689453	-401.1006774902344	779.7496337890625	-73.55377960205078	-582.9424438476562	169.0332794189453	154.3035736083984	-443.1083679199219	407.0768432617188	-114.5598907470703	-570.120849609375	51.13521575927734	-19.38022041320801	-624.970947265625	84.50395965576172	10.56893348693848	-535.134033203125	95.74888610839844	84.90882110595703	-648.7275390625	213.5625	179.5001678466797	
317	3.16	-578.0859375	1035.893310546875	53.50314712524414	-684.1943359375	1048.788940429688	-1.609065055847168	-649.1054077148438	1128.854858398438	23.11579704284668	-528.2685546875	1309.026611328125	-201.2800140380859	-641.9779663085938	1254.960327148438	25.53321075439453	-607.2588500976562	1515.161743164062	-32.02514266967773	-533.8283081054688	1427.388427734375	-178.3168640136719	-582.3140258789062	1376.17724609375	69.21389770507812	-716.7152099609375	1480.881469726562	-65.84206390380859	-723.4866943359375	1482.772216796875	-170.7785491943359	-811.6266479492188	1371.410888671875	-191.5330963134766	-835.5121459960938	1168.67431640625	-248.2478332519531	-838.2525024414062	1135.427978515625	-166.8899841308594	-689.4134521484375	981.0254516601562	-340.7961730957031	-760.6686401367188	961.58642578125	-381.3534545898438	-813.4508666992188	1075.490356445312	-301.8003540039062	-655.2913208007812	802.4356079101562	-413.7010803222656	-729.8765869140625	886.5520629882812	-419.5082092285156	-662.9705200195312	901.8722534179688	-411.2001037597656	-431.6048889160156	1467.647094726562	-6.539018154144287	-384.6640014648438	1402.004272460938	43.44733428955078	-372.9191284179688	1122.778686523438	91.85833740234375	-465.6900024414062	1116.372192382812	71.47188568115234	-326.625	918.38037109375	-56.34278106689453	-305.9044799804688	898.2669067382812	23.1889762878418	-347.2364196777344	1054.5986328125	74.90114593505859	-318.5591430664062	727.6367797851562	-85.25623321533203	-287.8842163085938	800.6494750976562	-87.62246704101562	-278.1786193847656	795.5255126953125	-15.66245269775391	-532.8740844726562	1657.598754882812	-34.40765380859375	-534.3472900390625	1726.36962890625	-250.7861785888672	-442.98291015625	1718.734252929688	-209.4794616699219	-634.1062622070312	1678.316040039062	-129.5445098876953	-766.1187744140625	994.1849365234375	-157.2886657714844	-439.1669921875	994.99560546875	12.54759883880615	-429.4419250488281	1041.921264648438	-88.58257293701172	-675.5179443359375	1034.689697265625	-224.5341949462891	-681.889404296875	512.9579467773438	-220.8185577392578	-718.8721313476562	654.7078857421875	-212.5140228271484	-723.582275390625	37.20662307739258	-136.3354949951172	-707.4628295898438	283.6658630371094	-184.1571350097656	-557.0852661132812	43.51359558105469	-285.9249877929688	-558.9686889648438	40.98161697387695	-205.8669281005859	-668.4635009765625	36.08706283569336	-252.5607604980469	-711.9703979492188	46.51237487792969	-56.94506454467773	-401.9920043945312	520.0803833007812	-147.6969451904297	-397.2182312011719	782.1319580078125	-77.50833892822266	-576.5218505859375	162.2963256835938	135.7979431152344	-436.1549072265625	409.1191101074219	-124.0956954956055	-556.2769165039062	52.06080627441406	-41.92743301391602	-613.0590209960938	81.96913909912109	-11.87514877319336	-525.1666259765625	93.31803131103516	64.53482055664062	-644.2999267578125	203.8415679931641	161.2536926269531	
